<svg width="68" height="74" viewBox="0 0 68 74" fill="none" xmlns="http://www.w3.org/2000/svg">
  <path
    d="M63.8563 16.0016L36.9125 0.857813C34.8688 -0.285938 32.3313 -0.285938 30.2875 0.857813L3.34375 16.0016C1.28125 17.1578 0 19.3266 0 21.6516V51.9391C0 54.2641 1.28125 56.4328 3.34375 57.5891L30.2875 72.7328C31.3125 73.3078 32.4563 73.5953 33.6 73.5953C34.7438 73.5953 35.8875 73.3078 36.9125 72.7328L63.8563 57.5891C65.9188 56.4328 67.2 54.2641 67.2 51.9391V21.6516C67.2 19.3266 65.9188 17.1578 63.8563 16.0016ZM33.6 55.9953C23.0125 55.9953 14.4 47.3828 14.4 36.7953C14.4 26.2078 23.0125 17.5953 33.6 17.5953C39.65 17.5953 45.2375 20.4016 48.8688 25.1828L41.8563 29.2391C39.75 26.9328 36.7563 25.5953 33.6 25.5953C27.425 25.5953 22.4 30.6203 22.4 36.7953C22.4 42.9703 27.425 47.9953 33.6 47.9953C36.7563 47.9953 39.75 46.6578 41.8563 44.3516L48.8688 48.4078C45.2375 53.1891 39.65 55.9953 33.6 55.9953ZM52.8 38.3953H49.6V41.5953H46.4V38.3953H43.2V35.1953H46.4V31.9953H49.6V35.1953H52.8V38.3953ZM64 38.3953H60.8V41.5953H57.6V38.3953H54.4V35.1953H57.6V31.9953H60.8V35.1953H64V38.3953Z"
    fill="black" />
</svg>