<svg width="68" height="74" viewBox="0 0 68 74" fill="none" xmlns="http://www.w3.org/2000/svg">
  <path
    d="M33.6 0C32.4563 0 31.3125 0.287501 30.2938 0.862501L3.34375 16.0063C1.28125 17.1625 0 19.3313 0 21.6562V51.9438C0 54.2687 1.28125 56.4375 3.34375 57.5938L30.2938 72.7375C31.3125 73.3125 32.4563 73.6 33.6 73.6C34.7438 73.6 35.8875 73.3125 36.9063 72.7375L63.8563 57.6C65.9188 56.4375 67.2 54.2687 67.2 51.9438V21.6562C67.2 19.3313 65.9188 17.1625 63.8563 16.0063L36.9063 0.862501C35.8875 0.287501 34.7438 0 33.6 0ZM33.6 17.6C39.65 17.6 45.2438 20.4062 48.8688 25.1812L41.8563 29.2437C39.75 26.9375 36.7563 25.6 33.6 25.6C27.425 25.6 22.4 30.625 22.4 36.8C22.4 42.975 27.425 48 33.6 48C36.7563 48 39.75 46.6625 41.8563 44.3563L48.8688 48.4188C45.2438 53.1938 39.65 56 33.6 56C23.0125 56 14.4 47.3875 14.4 36.8C14.4 26.2125 23.0125 17.6 33.6 17.6ZM49.6 28.8H52.8V32H56V28.8H59.2V32H62.4V35.2H59.2V38.4H62.4V41.6H59.2V44.8H56V41.6H52.8V44.8H49.6V41.6H46.4V38.4H49.6V35.2H46.4V32H49.6V28.8ZM52.8 35.2V38.4H56V35.2H52.8Z"
    fill="black" />
</svg>