<svg width="56" height="74" viewBox="0 0 56 74" fill="none" xmlns="http://www.w3.org/2000/svg">
  <path
    d="M28 0.200012C16.8 0.200012 11.8531 5.82814 11.8531 5.82814C10.9491 5.31294 9.9184 5.00001 8.8 5.00001C5.2656 5.00001 2.4 7.86561 2.4 11.4C2.4 14.3808 4.4416 16.8693 7.2 17.5813V33.6063L1.50313 39.3031C0.565527 40.2407 0.565527 41.7593 1.50313 42.6969C1.97193 43.1657 2.5856 43.4 3.2 43.4C3.8144 43.4 4.42808 43.1657 4.89688 42.6969L7.04375 40.55C6.64215 44.8316 5.6 46.8464 5.6 54.6C5.6 58.6464 7.5553 62.9854 11.2625 66.3438L7.90313 69.7031C6.96553 70.6407 6.96553 72.1593 7.90313 73.0969C8.37193 73.5657 8.9856 73.8 9.6 73.8C10.2144 73.8 10.8281 73.5657 11.2969 73.0969L15.25 69.1469C18.6644 71.0173 22.9248 72.2 28 72.2C33.0752 72.2 37.3371 71.0173 40.7531 69.1469L44.7031 73.0969C45.1703 73.5657 45.7856 73.8 46.4 73.8C47.0144 73.8 47.6281 73.5657 48.0969 73.0969C49.0345 72.1593 49.0345 70.6407 48.0969 69.7031L44.7375 66.3438C48.4447 62.9854 50.4 58.6464 50.4 54.6C50.4 46.8464 49.3579 44.8332 48.9563 40.55L51.1031 42.6969C51.5719 43.1673 52.1856 43.4 52.8 43.4C53.4144 43.4 54.0281 43.1657 54.4969 42.6969C55.4329 41.7593 55.4329 40.2407 54.4969 39.3031L48.8 33.6063V17.5813C51.5584 16.8693 53.6 14.3792 53.6 11.4C53.6 7.86561 50.7344 5.00001 47.2 5.00001C46.0816 5.00001 45.0509 5.31294 44.1469 5.82814C44.1469 5.82814 39.2 0.200012 28 0.200012ZM8.8 9.80001C9.2784 9.80001 9.68068 10.0281 9.97188 10.3625C9.47588 11.1833 9.06628 12.0626 8.77188 12.9938C7.90148 12.9778 7.2 12.2736 7.2 11.4C7.2 10.5168 7.9168 9.80001 8.8 9.80001ZM47.2 9.80001C48.0832 9.80001 48.8 10.5168 48.8 11.4C48.8 12.2736 48.0985 12.9778 47.2281 12.9938C46.9337 12.061 46.5241 11.1833 46.0281 10.3625C46.3193 10.0281 46.7216 9.80001 47.2 9.80001ZM19.2031 11.4031C22.2959 11.4047 24.7985 13.9103 24.7969 17.0031C24.7953 20.0959 22.2881 22.6016 19.1969 22.6C16.2712 22.5985 13.8995 20.3437 13.65 17.4844C13.8739 18.5777 14.8408 19.4 16 19.4C17.3248 19.4 18.4 18.3248 18.4 17C18.4 15.6736 17.3264 14.6 16 14.6C14.8408 14.6 13.8739 15.4223 13.65 16.5156C13.8993 13.6522 16.2753 11.4016 19.2031 11.4031ZM36.8 11.4031C39.8928 11.4047 42.3985 13.9103 42.3969 17.0031C42.3953 20.0959 39.8866 22.6016 36.7938 22.6C33.701 22.5984 31.1953 20.0897 31.1969 16.9969C31.1985 13.9041 33.7072 11.4015 36.8 11.4031ZM33.6 14.6C32.2752 14.6 31.2 15.6752 31.2 17C31.2 18.3248 32.2752 19.4 33.6 19.4C34.9248 19.4 36 18.3248 36 17C36 15.6736 34.9248 14.6 33.6 14.6ZM28 22.6C29.768 22.6 31.2 23.3168 31.2 24.2C31.2 25.0832 29.768 25.8 28 25.8C26.232 25.8 24.8 25.0832 24.8 24.2C24.8 23.3168 26.232 22.6 28 22.6ZM33.6094 26.5844C34.0974 27.322 34.4 28.1584 34.4 29C34.4 29.8 34.4 32.2 28 32.2C21.6 32.2 21.6 29.8 21.6 29C21.6 28.16 21.9027 27.3266 22.3875 26.5906C23.4435 28.061 25.48 29 28 29C30.5232 29 32.5614 28.0596 33.6094 26.5844ZM24.8 35.1531C25.7328 35.3067 26.784 35.4 28 35.4C29.216 35.4 30.2672 35.3067 31.2 35.1531V37C31.2 37.8848 30.4832 38.6 29.6 38.6C28.7168 38.6 28 37.8848 28 37C28 37.8848 27.2832 38.6 26.4 38.6C25.5168 38.6 24.8 37.8848 24.8 37V35.1531Z"
    fill="black" />
</svg>