<svg width="64" height="80" viewBox="0 0 64 80" fill="none" xmlns="http://www.w3.org/2000/svg">
  <path
    d="M37.1 -0.00622559C41.5 10.175 21.3125 16.4625 19.4437 24.95C17.7187 32.7375 31.425 41.7938 31.4312 41.7938C29.35 38.5688 27.8437 35.9063 25.7562 30.8875C22.225 22.4 47.25 14.725 37.1 -0.00622559ZM50.4812 14.1C50.4812 14.1 32.8062 15.2188 31.9062 26.5313C31.5062 31.5688 36.55 34.2563 36.7 37.925C36.8125 40.9125 33.6812 43.4063 33.6812 43.4063C33.6812 43.4063 39.3625 42.3375 41.1437 37.7688C43.1125 32.7 37.325 29.2375 37.9062 25.1813C38.4687 21.3 50.4812 14.1 50.4812 14.1ZM54.7687 40.2313C52.9187 40.15 50.8625 40.7625 49 42.1C52.65 41.3188 55.7375 43.55 55.7375 46.125C55.7375 51.925 47.3562 57.4063 47.3562 57.4063C47.3562 57.4063 60.3312 55.925 60.3312 46.4C60.3312 42.4625 57.8437 40.375 54.7687 40.2313ZM22.6937 40.2438C22.6937 40.2438 6.49999 40.025 6.49999 44.6063C6.49999 49.3938 27.7062 49.7313 42.85 46.7813C42.85 46.7813 46.8937 44.0125 47.9687 42.9813C38.0437 45.0063 15.3937 45.275 15.3937 43.525C15.3937 41.9063 22.6937 40.2438 22.6937 40.2438ZM18.7812 49.1563C16.3 49.1563 12.5937 51.075 12.5937 52.925C12.5937 56.6438 31.3 59.5125 45.15 54.075L40.3562 51.1375C30.9687 54.1438 13.6625 53.1813 18.7812 49.1563ZM21.0875 57.475C17.6812 57.475 15.475 59.575 15.475 61.125C15.475 65.9 35.8062 66.3813 43.8625 61.525L38.7437 58.2688C32.725 60.8125 17.6125 61.1563 21.0875 57.475ZM9.74374 61.8C4.19374 61.6875 0.587494 64.1813 0.587494 66.25C0.581243 77.25 57.425 76.7188 57.425 65.475C57.425 63.6125 55.225 62.725 54.4312 62.3C59.075 73.05 7.94999 72.2188 7.94999 65.875C7.94999 64.4313 11.7 63.0125 15.1875 63.6938L12.2312 62.0125C11.3625 61.8813 10.5312 61.8125 9.74374 61.8ZM63.4187 69.2C54.775 77.3875 32.875 80.375 10.85 75.3188C32.8687 84.325 63.3062 79.2563 63.4187 69.2Z"
    fill="black" />
</svg>