<svg width="68" height="68" viewBox="0 0 68 68" fill="none" xmlns="http://www.w3.org/2000/svg">
  <path
    d="M63.3375 0.400024H4.66875C2.3125 0.400024 0.399994 2.31253 0.399994 4.66878V63.3313C0.399994 65.6875 2.3125 67.6 4.66875 67.6H63.3312C65.6875 67.6 67.6 65.6875 67.6 63.3375V4.66878C67.6 2.31253 65.6875 0.400024 63.3375 0.400024ZM37.2 51.8938C37.2 58.2875 33.45 61.2 27.975 61.2C23.025 61.2 19.4562 57.8813 18 54.8L23.0312 51.7563C24 53.475 25.475 54.8 27.6 54.8C29.6312 54.8 30.8 54.0063 30.8 50.9188V30.8H37.2V51.8938ZM51.0812 61.2C45.4125 61.2 42.1937 58.3438 40.4 54.8L45.2 51.6C46.5062 53.7375 47.9312 55.7813 50.9437 55.7813C53.475 55.7813 54.8 54.5188 54.8 52.7688C54.8 50.6813 53.425 49.9375 50.6437 48.7188L49.1187 48.0625C44.7125 46.1875 41.7812 43.8375 41.7812 38.8625C41.7812 34.2875 45.275 30.8 50.725 30.8C54.6062 30.8 57.3937 32.15 59.4062 35.6875L54.6562 38.7438C53.6062 36.8625 52.4812 36.125 50.725 36.125C48.9375 36.125 47.8062 37.2625 47.8062 38.7438C47.8062 40.575 48.9375 41.3125 51.5562 42.45L53.0812 43.1063C58.275 45.325 61.2 47.5938 61.2 52.6938C61.2 58.1875 56.8812 61.2 51.0812 61.2Z"
    fill="black" />
</svg>