<svg width="74" height="74" viewBox="0 0 74 74" fill="none" xmlns="http://www.w3.org/2000/svg">
  <path
    d="M36 0C22.0813 0 19.2 7.1875 19.2 11.35V19.2H35.2V20.8H11.35C6.06875 20.8 0 24.9625 0 36.8C0 48.6375 6.06875 52.8 11.35 52.8H20.8V43.2C20.8 39.6813 23.6812 36.8 27.2 36.8H46.4C49.1188 36.8 51.2 34.7188 51.2 32V11.35C51.2 5.75 45.9188 0 36 0ZM28.8 8C30.5625 8 32 9.4375 32 11.2C32 12.9625 30.5625 14.4 28.8 14.4C27.0375 14.4 25.6 12.9625 25.6 11.2C25.6 9.4375 27.0375 8 28.8 8ZM52.8 20.8V32C52.8 35.5187 49.9188 38.4 46.4 38.4H27.2C24.4813 38.4 22.4 40.4813 22.4 43.2V62.25C22.4 67.85 27.6812 73.6 37.6 73.6C51.5187 73.6 54.4 66.4125 54.4 62.25V54.4H38.4V52.8H62.25C67.5312 52.8 73.6 48.6375 73.6 36.8C73.6 24.9625 67.5312 20.8 62.25 20.8H52.8ZM44.8 59.2C46.5625 59.2 48 60.6375 48 62.4C48 64.1625 46.5625 65.6 44.8 65.6C43.0375 65.6 41.6 64.1625 41.6 62.4C41.6 60.6375 43.0375 59.2 44.8 59.2Z"
    fill="black" />
</svg>