<svg width="68" height="68" viewBox="0 0 68 68" fill="none" xmlns="http://www.w3.org/2000/svg">
  <path
    d="M66 0.399994H1.99999C1.11519 0.399994 0.399994 1.11679 0.399994 1.99999V66C0.399994 66.8832 1.11519 67.6 1.99999 67.6H66C66.8848 67.6 67.6 66.8832 67.6 66V1.99999C67.6 1.11679 66.8848 0.399994 66 0.399994ZM40.4 36.312H32.4V61.2H26V36.312H18V30.8H40.4V36.312ZM42.1936 59.7792V53.1264C42.1936 53.1264 45.8272 55.8656 50.1872 55.8656C54.5472 55.8656 54.3792 53.0144 54.3792 52.624C54.3792 48.4864 42.0256 48.4864 42.0256 39.32C42.0256 26.8544 60.0256 31.7728 60.0256 31.7728L59.8016 37.6992C59.8016 37.6992 56.7824 35.6864 53.3728 35.6864C49.9632 35.6864 48.7328 37.3072 48.7328 39.04C48.7328 43.512 61.1984 43.0656 61.1984 52.0656C61.2 65.928 42.1936 59.7792 42.1936 59.7792Z"
    fill="black" />
</svg>